HIERARCHY
ROOT root
{
	OFFSET	0	13.1	24.9
	CHANNELS 6  Xposition Yposition Zposition Xrotation Yrotation Zrotation
	JOINT spine_1
	{
		OFFSET	0	9.99999	0
		CHANNELS 3  Xrotation Yrotation Zrotation
		JOINT spine_2
		{
			OFFSET	0	112	-10
			CHANNELS 3  Xrotation Yrotation Zrotation
			JOINT spine_3
			{
				OFFSET	0	206.5	19.3
				CHANNELS 3  Xrotation Yrotation Zrotation
				JOINT spine_4
				{
					OFFSET	0	110.4	14.6
					CHANNELS 3  Xrotation Yrotation Zrotation
					JOINT neck_1
					{
						OFFSET	0	71.8	-50.3
						CHANNELS 3  Xrotation Yrotation Zrotation
						JOINT neck_2
						{
							OFFSET	0	86.2	-25.8
							CHANNELS 3  Xrotation Yrotation Zrotation
							JOINT head_ee
							{
								OFFSET	0	179.8	-8.7
								CHANNELS 3  Xrotation Yrotation Zrotation
								End Site
								{
									OFFSET	1	0	0
								}
							}
						}
					}
					JOINT left_clavicle
					{
						OFFSET	-43.2	22.4	-70.8
						CHANNELS 3  Xrotation Yrotation Zrotation
						JOINT left_shoulder
						{
							OFFSET	-93.9	-5.79999	48.7
							CHANNELS 3  Xrotation Yrotation Zrotation
							JOINT left_elbow
							{
								OFFSET	-291.4	-30.8	15.2
								CHANNELS 3  Xrotation Yrotation Zrotation
								JOINT left_lowarm_twist
								{
									OFFSET	-110.7	-3.89999	13.6
									CHANNELS 3  Xrotation Yrotation Zrotation
									JOINT left_hand
									{
										OFFSET	-110.7	-3.89999	13.6
										CHANNELS 3  Xrotation Yrotation Zrotation
										JOINT left_ee
										{
											OFFSET	-80.8	-5.10001	12.1
											CHANNELS 3  Xrotation Yrotation Zrotation
											End Site
											{
												OFFSET	1	0	0
											}
										}
									}
								}
							}
						}
					}
					JOINT right_clavicle
					{
						OFFSET	43.2	22.4	-70.8
						CHANNELS 3  Xrotation Yrotation Zrotation
						JOINT right_shoulder
						{
							OFFSET	93.9	-5.79999	48.7
							CHANNELS 3  Xrotation Yrotation Zrotation
							JOINT right_elbow
							{
								OFFSET	291.4	-30.8	15.2
								CHANNELS 3  Xrotation Yrotation Zrotation
								JOINT right_lowarm_twist
								{
									OFFSET	110.7	-3.89999	13.6
									CHANNELS 3  Xrotation Yrotation Zrotation
									JOINT right_hand
									{
										OFFSET	110.7	-3.89999	13.6
										CHANNELS 3  Xrotation Yrotation Zrotation
										JOINT right_ee
										{
											OFFSET	80.8	-5.10001	12.1
											CHANNELS 3  Xrotation Yrotation Zrotation
											End Site
											{
												OFFSET	1	0	0
											}
										}
									}
								}
							}
						}
					}
				}
			}
		}
	}
	JOINT left_hip
	{
		OFFSET	-82.8	-127.5	0.300001
		CHANNELS 3  Xrotation Yrotation Zrotation
		JOINT left_knee
		{
			OFFSET	-28.2	-396.7	2.2
			CHANNELS 3  Xrotation Yrotation Zrotation
			JOINT left_ankle
			{
				OFFSET	-11.7	-411.3	35.4
				CHANNELS 3  Xrotation Yrotation Zrotation
				JOINT left_toes
				{
					OFFSET	0	-60	-88.6
					CHANNELS 3  Xrotation Yrotation Zrotation
					JOINT left_foot_ee
					{
						OFFSET	-22.5	-16.5	-42.2
						CHANNELS 3  Xrotation Yrotation Zrotation
						End Site
						{
							OFFSET	1	0	0
						}
					}
				}
			}
		}
	}
	JOINT right_hip
	{
		OFFSET	82.8	-127.5	0.300001
		CHANNELS 3  Xrotation Yrotation Zrotation
		JOINT right_knee
		{
			OFFSET	28.2	-396.7	2.2
			CHANNELS 3  Xrotation Yrotation Zrotation
			JOINT right_ankle
			{
				OFFSET	11.7	-411.3	35.4
				CHANNELS 3  Xrotation Yrotation Zrotation
				JOINT right_toes
				{
					OFFSET	0	-60	-88.6
					CHANNELS 3  Xrotation Yrotation Zrotation
					JOINT right_foot_ee
					{
						OFFSET	22.5	-16.5	-42.2
						CHANNELS 3  Xrotation Yrotation Zrotation
						End Site
						{
							OFFSET	1	0	0
						}
					}
				}
			}
		}
	}
}
MOTION
Frames: 8
Frame Time: 0.02
2163.46 710.173 -1451.58 -8.33666 55.1944 -0.0426084 3.28944 0.82387 3.72789 3.29698 0.585159 3.77267 3.3327 0.00154758 3.81771 3.31288 0.60403 3.7697 -9.00073 16.286 -6.10047 -9.15021 34.7117 -2.05297 -0.0 0.0 -0.0 -5.02396 23.8771 -4.08715 -12.5101 -16.9407 60.361 2.67373 -52.9376 1.33144 -40.7973 -3.03636 4.11733 -0.572312 2.64219 -2.68282 -0.0 0.0 -0.0 12.7545 17.0707 -25.8501 -10.4048 14.5151 -70.4087 0.197047 5.5752 -0.00959453 52.7246 1.1707 6.39789 -2.08215 -10.3532 9.06278 0.0 0.0 0.0 -6.24051 18.9011 7.26332 0.558557 -0.0234029 -0.0825189 39.3157 10.7996 -4.82215 -39.842 0.0 0.0 -0.0 0.0 -0.0 6.60509 16.0321 4.13139 -19.9302 -0.296464 -3.02868 38.9937 15.3826 5.08834 -34.7879 0.0 0.0 0.0 0.0 0.0 
2157.92 704.34 -1451.3 -8.85871 55.7349 -0.00210629 3.31131 0.85459 3.76918 3.319 0.613195 3.81583 3.35694 0.0243529 3.86463 3.33666 0.633944 3.81244 -7.33076 16.2816 -4.17273 -7.29248 33.2829 -0.707376 -0.0 0.0 -0.0 -5.25338 24.2937 -4.29223 -13.1756 -12.9685 62.4655 2.84272 -54.6101 1.46778 -41.8699 -3.15219 4.1917 -0.711764 3.79643 -3.10584 -0.0 0.0 -0.0 12.674 17.5572 -25.6391 -9.54476 14.4109 -71.1776 0.199164 5.63471 -0.00980127 52.9263 1.18617 6.41857 -2.33398 -11.0813 10.3332 0.0 0.0 0.0 -4.31556 18.0228 6.92258 -2.57143 0.0973018 0.382601 41.6255 9.45593 -5.01225 -39.0326 0.0 0.0 -0.0 0.0 -0.0 6.11156 15.8496 4.96916 -19.6444 -0.2997 -2.98495 40.1712 15.027 5.18147 -33.6174 0.0 0.0 0.0 0.0 0.0 
2150.73 705.228 -1454.79 -9.96013 57.2113 1.35427 3.30039 0.946563 3.63508 3.30746 0.713497 3.68785 3.35079 0.142816 3.75343 3.33188 0.733402 3.68395 -7.15992 15.4281 -3.72717 -7.10982 31.3651 -0.503251 -0.0 0.0 -0.0 -5.20881 24.5414 -4.165 -15.461 -13.9187 63.1928 2.60748 -52.2444 1.27881 -42.9448 -3.26965 4.26404 -0.712636 4.3887 -2.85407 -0.0 0.0 -0.0 12.9034 18.7719 -26.1024 -6.51998 14.3901 -72.2785 0.201469 5.69949 -0.0100288 53.3265 1.21711 6.45945 -2.01166 -11.2862 8.15289 0.0 0.0 0.0 0.880944 17.6743 4.08574 -12.3752 0.308558 1.8704 42.2602 6.26325 -5.04966 -37.4876 0.0 0.0 -0.0 0.0 -0.0 4.8573 15.2572 5.05784 -17.7844 -0.315431 -2.70001 39.8574 16.2133 5.19381 -30.2008 0.0 0.0 0.0 0.0 0.0 
2148.43 698.605 -1461.01 -12.1123 58.1747 2.84718 3.37127 0.965156 3.47197 3.37767 0.742411 3.52626 3.42089 0.200501 3.59789 3.40365 0.76585 3.52125 -6.16491 15.9632 -0.721238 -6.07146 30.1062 2.34441 -0.0 0.0 -0.0 -5.54882 23.3582 -4.95671 -16.507 -12.6491 65.3198 2.53503 -51.4606 1.22183 -42.3254 -3.2018 4.22263 -0.224099 5.68451 0.907257 -0.0 0.0 -0.0 14.1034 24.2243 -28.4527 -4.48633 13.3544 -72.8099 0.212716 6.0154 -0.0111766 55.3791 1.38024 6.66569 -2.03999 -10.7549 8.59409 0.0 0.0 0.0 12.086 16.9475 0.674564 -32.0643 -0.0405222 4.85692 41.492 7.40826 -4.98969 -30.521 0.0 0.0 -0.0 0.0 -0.0 5.47651 12.7806 5.43951 -18.3333 -0.311751 -2.78414 40.3091 14.1758 5.16647 -25.5786 0.0 0.0 0.0 0.0 0.0 
2145.48 697.494 -1457.59 -15.4555 61.2203 5.75073 3.50983 0.660575 3.52905 3.51665 0.43482 3.56388 3.54069 -0.102339 3.58881 3.52302 0.465365 3.56002 -5.17314 15.3775 -0.32796 -4.99955 28.5921 2.37014 -0.0 0.0 -0.0 -5.62332 23.243 -5.09334 -16.6845 -12.5603 67.8765 2.17552 -47.1353 0.949091 -42.8595 -3.26027 4.25838 -0.372645 5.71625 -0.0516685 -0.0 0.0 -0.0 13.9348 23.7089 -28.1107 -2.98243 12.6448 -72.0378 0.27962 7.88637 -0.0192743 56.6522 1.48511 6.79065 -1.18196 -12.2479 2.42211 0.0 0.0 0.0 19.6614 17.0066 -1.29196 -43.6764 -0.717066 6.50511 39.3273 7.20178 -4.80247 -28.4089 0.0 0.0 -0.0 0.0 -0.0 5.16904 12.3886 5.84036 -14.6267 -0.320936 -2.21562 40.3314 13.8224 5.15758 -20.6498 0.0 0.0 0.0 0.0 0.0 
2139.0 698.735 -1460.59 -17.0053 63.1981 8.0847 3.37718 0.603774 3.23128 3.3829 0.397047 3.26311 3.40321 -0.102684 3.28555 3.38839 0.417214 3.26059 -3.91442 15.0113 0.683281 -3.66827 26.9631 3.0457 -0.0 0.0 -0.0 -5.81602 23.3437 -5.33599 -18.0144 -13.4475 68.8578 1.8991 -43.2472 0.75287 -43.3268 -3.31171 4.28922 -0.133757 5.80417 1.54868 -0.0 0.0 -0.0 14.1107 25.0857 -28.3725 -2.36395 12.0228 -71.6668 0.401994 11.2625 -0.0396375 58.7221 1.66149 6.9888 -1.27715 -14.515 1.99894 0.0 0.0 0.0 24.0884 14.4348 -3.64311 -49.2132 -1.15434 7.23611 34.0518 6.13421 -4.30557 -25.1714 0.0 0.0 -0.0 0.0 -0.0 6.23418 9.85323 4.39475 -16.8466 -0.319853 -2.55619 40.5794 9.6746 5.06911 -17.3055 0.0 0.0 0.0 0.0 0.0 
2134.1 701.401 -1460.18 -17.5943 64.6196 8.76465 3.30647 0.596202 3.06998 3.31162 0.399739 3.10166 3.3313 -0.0794296 3.12628 3.31791 0.415063 3.09965 -6.13121 15.3178 1.72796 -6.06282 27.1245 4.66923 -0.0 0.0 -0.0 -5.94223 23.3821 -5.50248 -18.2771 -13.0886 70.1175 1.68363 -39.8255 0.609926 -44.0302 -3.38961 4.33486 -0.0290199 7.65386 2.99744 -0.0 0.0 -0.0 14.1004 25.6656 -28.2794 -0.737931 11.9416 -71.3712 0.528205 14.6633 -0.0679616 58.6065 1.65144 6.9779 -1.04668 -14.2295 0.692475 0.0 0.0 0.0 29.228 8.26951 -4.21714 -56.6896 -1.85333 8.15074 25.5313 5.06055 -3.39326 -24.9051 0.0 0.0 -0.0 0.0 -0.0 3.36858 9.95622 5.11883 -13.0022 -0.313368 -1.96649 39.7367 10.0373 5.00483 -11.276 0.0 0.0 0.0 0.0 0.0 
2127.63 703.469 -1458.99 -19.6969 66.7984 11.5703 3.1982 0.62712 2.87321 3.20268 0.443098 2.90725 3.22363 -0.0122973 2.94077 3.21184 0.452098 2.90587 -5.71392 15.2254 2.88296 -5.61287 26.0336 5.71605 -0.0 0.0 -0.0 -6.21003 23.554 -5.82849 -19.3656 -13.2979 71.6611 1.5485 -37.4885 0.5255 -43.8554 -3.37021 4.32361 0.0753081 7.91876 3.7833 -0.0 0.0 -0.0 13.9924 25.9928 -27.9862 -0.178943 11.6899 -70.6855 0.594966 16.4219 -0.0858527 58.849 1.67254 7.00074 -0.921689 -14.7649 -0.318479 0.0 0.0 0.0 31.7859 4.72638 -3.90493 -58.7244 -2.06383 8.38341 23.8605 6.81329 -3.19756 -24.5695 0.0 0.0 -0.0 0.0 -0.0 4.00322 9.2626 4.46629 -14.0014 -0.318859 -2.1197 39.5282 10.2769 4.99221 -5.52363 0.0 0.0 0.0 0.0 0.0 
